<svg xmlns="http://www.w3.org/2000/svg" version="1.1" xmlns:xlink="http://www.w3.org/1999/xlink" xmlns:svgjs="http://svgjs.dev/svgjs" width="32" height="32"><svg xmlns="http://www.w3.org/2000/svg" viewBox="0 0 32 32"><title>idea android app aplication phone</title><g id="SvgjsG1036" data-name="idea android app aplication phone"><path d="M22,21.28V19a10,10,0,1,0-12,0v2.28A2,2,0,0,0,9,23v2a2,2,0,0,0,2,2h.1a5,5,0,0,0,9.8,0H21a2,2,0,0,0,2-2V23A2,2,0,0,0,22,21.28ZM8,11a8,8,0,1,1,12.44,6.65,1,1,0,0,0-.44.83V21H12V18.48a1,1,0,0,0-.44-.83A8,8,0,0,1,8,11Zm8,18a3,3,0,0,1-2.83-2h5.66A3,3,0,0,1,16,29Zm-5-4V23H21v2Z"></path><path d="M14.29,14.71a1,1,0,0,0,1.42,0l4-4a1,1,0,0,0-1.42-1.42L15,12.59l-1.29-1.3a1,1,0,0,0-1.42,1.42Z"></path></g></svg><style>@media (prefers-color-scheme: light) { :root { filter: none; } }
@media (prefers-color-scheme: dark) { :root { filter: invert(100%); } }
</style></svg>